<svg version="1" xmlns="http://www.w3.org/2000/svg" width="417.333" height="417.333" viewBox="0 0 313.000000 313.000000"><path d="M120.9 64.6c-1.3 1.6-.2 2.1 4.1 1.9 2.3-.1 3.5-.7 3.5-1.6 0-1.8-6.1-2-7.6-.3zM133.4 64.2c-.9 1.4.2 2 4.7 2.5 3.2.4 4 .2 3.7-.8-.5-1.6-7.6-3-8.4-1.7zM111.3 67.4c-1.3.6-2.3 1.4-2.3 1.8 0 .5-1.2.8-2.7.8-3 0-2.1 1.8 1.3 2.4 1 .3 2.8.8 3.8 1.2 1.6.6 1.8.4 1.3-1.5-.4-1.7-.1-2.4 1.3-2.8 2.5-.7 3.5-3.3 1.2-3.2-.9.1-2.7.6-3.9 1.3zM146 67.2c0 1.5 6.4 3.8 8 2.8 1.5-1-.7-2.6-4.7-3.5-2.4-.5-3.3-.3-3.3.7zM95.6 69.9c-3 .6-4.9 3.1-2.3 3.1 2.9 0 7.7-1.3 7.7-2 0-1.2-2.3-1.7-5.4-1.1zM158 70.9c0 1.4 5.8 4.3 7.8 3.9 1.4-.3 1.2-.7-.8-2-3.4-2.2-7-3.2-7-1.9zM83.2 74.6c-1.8.8-3.2 1.9-3 2.5.4 1.3.8 1.2 5.3-.7 2-.8 3.3-1.9 3-2.4-.8-1.2-1.2-1.2-5.3.6zM101.1 75.6c-2.2 2.8-2.7 4.4-1.3 4.4 1 0 6.2-5.3 6.2-6.3 0-1.7-3-.5-4.9 1.9zM117.2 74.2c.4 1.2 5.5 4.6 7.1 4.7.4.1.7-.5.7-1.3 0-.7-1.5-2.1-3.4-3-4.1-1.9-4.9-2-4.4-.4zM170.9 78c2.4 2.1 4.1 2.6 4.1 1.2 0-1.5-2.4-3.2-4.4-3.2-2 .1-2 .1.3 2zM74.5 80.1c-.5.5-2 1.8-3.3 2.8-3.3 2.8-.8 3.7 2.8 1.1 1.7-1.2 3-2.8 3-3.6 0-1.6-1-1.8-2.5-.3zM127.5 82.7c.4 1 1 2.8 1.2 4 .3 1.3 1.2 2.3 1.9 2.3 1 0 1.3-.8 1-2.3-.8-3.9-1.8-5.7-3.3-5.7-1.1 0-1.3.5-.8 1.7zM96.7 83.8c-1.1 1.7-1.5 5.9-.7 7.2 1.3 2.1 2.6.4 2.5-3.4-.1-3.7-.9-5.4-1.8-3.8zM63.5 89.3c-3.2 4-3.5 4.6-2.6 5.1 1.1.7 6.1-3.6 6.1-5.3 0-1.5-2.2-1.4-3.5.2zM218 90c-1.1 1.1-2 2.5-2 3.2 0 .7-.7.5-1.7-.5-2.9-2.5-10.2-2.7-12.6-.3-2.2 2.3-.6 9.5 2.8 12.4 2.5 2.1 2.6 2.4 1.1 4.1-2.2 2.4-2 5.7.4 8.1 3.5 3.5 8.5 2.4 10.5-2.3 1-2.3 1.9-3 4.5-3.2 2.5-.2 3.4.2 3.7 1.6.3 1 1 1.9 1.5 1.9.6 0 .7-1 .4-2.3-.4-1.2-.8-2.9-.9-3.7-.2-1.4.2-1.6 3.8-1.9.8 0 1.5-.8 1.5-1.6 0-1.3-.4-1.4-2-.5-1.7.9-2.2.7-3.2-1.6-1-2.2-1-2.8.5-3.9.9-.7 2-2.6 2.3-4.3 1.2-5.9-6.2-9.6-10.6-5.2zm8 2c1.6 3 .4 5.6-3.4 7.4-5.7 2.7-6.5 2.3-5.5-2.7 1.5-6.4 6.6-9.1 8.9-4.7zm-17 3c0 2.1-3.8 6.2-5 5.5-1.3-.8-1.7-5.4-.7-6.4 1.9-1.9 5.7-1.3 5.7.9zm3.5 1.3c-.1 1.2-.6 2.9-.9 3.8-.9 2.1-5.3 4.2-6.1 2.9-.4-.6-.2-1 .4-1 1.8 0 5.1-4.3 5.1-6.7 0-1.4.4-2.2.9-1.9.5.4.8 1.6.6 2.9zm.6 6c-1 .9-1.1.8-.5-.6.3-1 .9-1.5 1.2-1.2.3.3 0 1.1-.7 1.8zm10.3 1.3c1 2.7.7 4.3-1.3 5.4-1.1.5-2.7.7-3.5.4-2.2-.9-1.5-5.5 1-6.5 2.8-1.1 3.1-1.1 3.8.7zm-8.1 6.9c-.7 4.6-2.1 6.5-4.9 6.5-1.6 0-2.8-.8-3.5-2.4-1.3-2.9.3-5.8 4.8-8.7 2.6-1.8 2.8-1.8 3.4-.1.3.9.4 3 .2 4.7zM124.7 95.6c-2.6 2.4-2.9 5.2-.4 3.8 2.6-1.5 5.6-4.7 5.1-5.5-.8-1.4-1.7-1.1-4.7 1.7zM99 96.3c0 1.6 4.2 5.7 5.8 5.7 2.4 0 1.1-2.5-2.3-4.8-2.5-1.5-3.5-1.8-3.5-.9zM55.2 99c-1.5 2.5-1.5 3 .1 3 1.4 0 3.9-3.5 3-4.4-1-1-1.8-.7-3.1 1.4zM110.5 100.8c-1.5 1.5 0 2.3 3.7 2 5.6-.5 6.4-2.8.9-2.6-2.3.1-4.3.4-4.6.6zM103.3 116.8c-1.2.2-3.6 1.6-5.3 3.2-3.3 3.1-4 7.7-1.9 12.3 1 2.2.6 3.1-3.5 8.1-15.2 18.7-16.2 36.5-3.3 63.6 2 4.1 4 9.2 4.5 11.2l1 3.6-8.7-.5c-12.8-.8-17.7 1.9-18.8 10.4-.5 3.9 1.2 9.6 4.1 13.8 1.1 1.6 2 3.5 1.8 4.1-.1.7 8.4 1 27.9 1l28-.1 1.9-2.5c1.7-2.2 3.2-6.8 4.5-14 .3-1.4 1.3-3.6 2.3-5 2.8-3.8 7-13.2 8.1-18.1 1.6-6.6 1.3-16.6-.4-19.9-1.3-2.5-1.3-2.9-.1-2.4 2.3.9 4.9 7.5 5 12.4.1 5.5-2.4 17.4-4.7 21.9-2.2 4.5-2.2 4.6.9 2.2 6.1-4.8 15.1-4.8 30.9-.2 5.5 1.6 10.9 3.1 12 3.4 1.2.3.5.5-1.5.6-1.9 0-5.1-.4-7-.9-10.5-3.1-24.9-3.4-29.5-.6-4.9 2.9-6.3 6.3-6.2 15.3l.1 7.9 35.7-.1h35.7l2.6-2.4c2.3-2.1 2.5-3.1 2.5-9.6-.1-15.1 5.8-20.2 18.4-15.9 11.8 4 17.7 16.2 12.1 25.1-.8 1.2-1.4 2.4-1.4 2.5 0 .2 1.9.3 4.3.2 2.4-.1 4.1-.6 4-1.2-.5-2 1.6-6.1 3.6-7.1 1.8-1 1.8-.9.8 1.9-1.7 4.5-.1 6.4 5.3 6.5 3.5 0 4.4-.3 5.1-2.3.5-1.2 2.1-3.3 3.6-4.6l2.8-2.4 1.3 3.2c.7 1.7 1.4 3.5 1.5 4.1.1.5.5 1.2.9 1.5.5.4 10.5.5 14.4.1 3.1-.3-2-12.8-6.6-16.1-1.5-1.1-3.3-2-4-2-.8 0-.9-.6-.5-1.8 5.6-13 4.8-23.4-2.5-33.6l-3.1-4.3 2.9-3.1c4.9-5.3 5.8-14.7 1.7-18.8-2.6-2.6-5.2-2.6-8.3-.1-2.1 1.7-5.1 8.2-5.4 11.6-.2 3.1-1.2 4-2.2 2.2-1.7-2.7-26.1-10.5-37.9-12.1-12.2-1.7-13.7-1.9-19.6-3.6-10.6-3-21.7-9.7-45.6-27.3-6-4.5-13.9-9.5-17.4-11.1-8-3.8-20.4-5.9-28.6-4.8-5.6.7-6.1.6-8-1.7-2.1-2.7-6.6-4.3-10.2-3.7zm146.9 87.4c-1.7 1.7-1.5 6.4.4 8.3.9.9 1.4 1.9 1 2.2-1.2 1.2-5.4-2-6.1-4.4-.7-3 1.8-7.3 4.2-7.3 1.3 0 1.4.3.5 1.2zM23.1 159.1c-6.1 1.2-7.7 2.6-5.5 5 1 1.1 1.3 1.9.7 1.9-.6 0-2.2 2.2-3.6 4.9-1.9 3.7-2.4 6.1-2.2 9.8.7 12.1 7.1 28.4 12.3 31.5 4 2.4 7.6 3.1 16.3 3.1 10.9 0 16.4-2.8 20.1-10.3 3.5-7 5.9-16.3 6-23.7.1-6.6-.6-9.6-3.5-13.6-1.4-2.1-1.7-3.1-.8-4 2.1-2.1 1.3-2.8-4.9-4.5-3-.8-30.6-.9-34.9-.1zm31.7 2.4c4.7.7 5 1.3 1.1 2.1-2.7.5-25 .5-28.9 0-1.4-.2-3.4-.4-4.5-.5-3.9-.3.4-1.7 5.7-2 2.9-.1 5.4-.3 5.5-.4.4-.5 16.8.2 21.1.8zm-23.4 7.1c-.8 1.2-1.3 3.2-1 4.5 1.9 8.1 1.6 11.9-.9 11.9-1.9 0-2.3-1.8-1.8-9.1.3-4.2.1-6.9-.6-7.4-2-1.2-1.1-2 2.3-2.1 3.3-.1 3.4 0 2 2.2z"/><path d="M240.2 228.7c.5 2-1.6 5.5-3.8 6.3-2.8 1.1-3.2 3-.6 3 2.4 0 6.2 2.8 7.1 5.3.8 2 .9 2 2.6-.7 2.6-3.9 2.4-9.1-.5-12.1-2.2-2.3-5.2-3.4-4.8-1.8z"/></svg>